<svg xmlns="http://www.w3.org/2000/svg" xmlns:xlink="http://www.w3.org/1999/xlink"><defs><clipPath id="a"><path fill="#fff" d="M0 0h18v18H0z"/></clipPath></defs><symbol id="contrast-tablet"><g fill="none"><path d="M8 2a6 6 0 1 1 0 12A6 6 0 0 1 8 2Zm0-2a8 8 0 1 0 0 16A8 8 0 0 0 8 0Z" fill="#D22856"/><path d="M8 12.145a4.26 4.26 0 0 0 0-8.5" fill="#D22856"/></g></symbol><symbol id="contrast"><g fill="none"><g opacity=".3" fill="#283645"><path d="M16 4a12 12 0 1 1 0 24 12 12 0 0 1 0-24Zm0-4a16 16 0 1 0 0 32 16 16 0 0 0 0-32Z"/><path d="M16 24.29a8.52 8.52 0 0 0 0-17"/></g></g></symbol><symbol id="crop-tablet"><g fill="none"><path d="M16 14h2V6a2 2 0 0 0-2-2H8v2h8v8ZM6 16V0H4v4H0v2h4v10a2 2 0 0 0 2 2h10v4h2v-4h4v-2H6Z" fill="#D22856"/></g></symbol><symbol id="crop"><g fill="none"><path opacity=".3" d="M32 28h4V12a4 4 0 0 0-4-4H16v4h16v16Zm-20 4V0H8v8H0v4h8v20a4 4 0 0 0 4 4h20v8h4v-8h8v-4H12Z" fill="#283645"/></g></symbol><symbol id="fill-tablet"><g fill="none"><path d="M16.56 9.148 7.62 0 6.205 1.448l2.38 2.435L3.44 9.148c-.28.288-.439.678-.439 1.085 0 .406.158.796.439 1.084l5.5 5.628c.281.288.662.449 1.06.449s.779-.161 1.06-.449l5.5-5.628c.28-.288.439-.678.439-1.084 0-.407-.158-.797-.439-1.085ZM5.205 10.233 10 5.33l4.795 4.902h-9.59ZM19 11.767s-2 2.216-2 3.582c0 .543.21 1.063.586 1.447.375.384.884.6 1.414.6.53 0 1.04-.216 1.414-.6A2.07 2.07 0 0 0 21 15.349c0-1.366-2-3.582-2-3.582ZM24 20.465H0V22h24v-1.535Z" fill="#D22856"/></g></symbol><symbol id="fill"><g fill="none"><g opacity=".3" fill="#283645"><path d="M33.12 17.88 15.24 0l-2.83 2.83 4.76 4.76L6.88 17.88a3 3 0 0 0 0 4.24l11 11a3 3 0 0 0 4.24 0l11-11a3 3 0 0 0 0-4.24ZM10.41 20 20 10.42 29.59 20H10.41ZM38 23s-4 4.33-4 7a4 4 0 1 0 8 0c0-2.67-4-7-4-7ZM48 40H0v3h48v-3Z"/></g></g></symbol><symbol id="html-academy-icon"><g fill="none"><path d="M13.643.016 13.5 0 0 1.407v24.606L13.5 34 27 26.013V1.407L13.643.016Zm11.591 25L13.5 31.956 1.766 25.015V14.93l11.685 6.916.02 1.253-8.017-4.743-.011 1.225 8.046 4.809.02 1.286-8.045-4.758-.01 1.226L13.5 26.95l8.124-4.833V16.91l3.62-2.15-.01 10.256Zm0-11.564-3.22 1.88-1.482.875-7.065-4.187-.011 1.225 6.04 3.573-.053.031-.13.076-.86.492-4.986-2.948-.011 1.225 3.936 2.328-.933.61-.021.012-2.971-1.742-.011 1.225 1.947 1.135-1.988 1.186-11.618-6.872 11.638-6.958 11.8 6.834Zm0-1.225L13.44 5.31 1.766 12.22V2.99L13.5 1.764 25.234 2.99v9.237Z" fill="#D22856"/></g></symbol><symbol id="pink"><g fill="none"><path d="M.005 1.549c0-.336.13-.66.365-.9C.604.41.922.27 1.257.262H8.39c5.057 0 8.385 2.703 8.385 7.13v.06c0 4.846-4.033 7.358-8.802 7.358H2.538v6.801a1.28 1.28 0 0 1-.754 1.28 1.269 1.269 0 0 1-1.717-.758 1.28 1.28 0 0 1-.062-.522V1.549Zm8.067 10.968c3.706 0 6.14-1.994 6.14-4.986v-.06c0-3.21-2.394-4.875-5.961-4.875H2.588v9.881l5.484.04ZM21.593 1.389a1.282 1.282 0 0 1 .755-1.28 1.268 1.268 0 0 1 1.717.758c.056.168.077.346.062.522v20.222a1.28 1.28 0 0 1-.754 1.28 1.27 1.27 0 0 1-1.717-.758 1.282 1.282 0 0 1-.063-.522V1.389ZM30.674 1.419A1.278 1.278 0 0 1 31.926.173h.348a1.535 1.535 0 0 1 1.281.737l13.6 17.4V1.36A1.239 1.239 0 0 1 48.389.122c.327 0 .64.13.871.362.231.232.36.546.36.874v20.292a1.14 1.14 0 0 1-.703 1.092 1.13 1.13 0 0 1-.449.085h-.129a1.695 1.695 0 0 1-1.311-.778L33.117 4.24v17.41a1.258 1.258 0 0 1-1.191 1.247 1.238 1.238 0 0 1-1.212-1.247V1.42h-.04ZM55.938 1.389a1.282 1.282 0 0 1 .755-1.28 1.268 1.268 0 0 1 1.717.758c.056.168.077.346.062.522v12.295L71.228.55c.262-.271.618-.432.994-.448a1.27 1.27 0 0 1 1.222 1.256 1.29 1.29 0 0 1-.418.898l-7.947 7.897 8.573 10.53c.224.26.348.593.348.937a1.312 1.312 0 0 1-.838 1.191 1.228 1.228 0 0 1-1.497-.493L63.3 11.859l-4.828 4.846v4.886a1.27 1.27 0 0 1-.78 1.17 1.259 1.259 0 0 1-1.648-.685 1.27 1.27 0 0 1-.096-.485V1.389h-.01Z" fill="#fff"/></g></symbol><symbol id="telegram"><g fill="none"><path d="M16.703 3.202 14.327 14.41c-.18.79-.647.988-1.311.615l-3.622-2.668-1.747 1.68c-.193.194-.355.355-.728.355l.26-3.687 6.712-6.065c.292-.26-.064-.404-.453-.144L5.14 9.721 1.569 8.603c-.777-.243-.791-.777.162-1.15L15.7 2.07c.648-.242 1.213.144 1.002 1.133v-.001Z" fill="#D22856"/></g></symbol><symbol id="vk"><g fill="none"><g clip-path="url(#a)"><path fill-rule="evenodd" clip-rule="evenodd" d="M17.587 4.711c.125-.41 0-.711-.596-.711h-1.968c-.502 0-.732.26-.858.548 0 0-1.001 2.396-2.42 3.954-.458.451-.667.594-.917.594-.125 0-.314-.143-.314-.553V4.71c0-.492-.138-.711-.555-.711H6.863c-.313 0-.5.228-.5.445 0 .465.709.574.781 1.885v2.848c0 .625-.114.738-.365.738-.667 0-2.291-2.408-3.255-5.164C3.337 4.216 3.148 4 2.645 4H.675C.112 4 0 4.26 0 4.548 0 5.059.667 7.6 3.109 10.96 4.736 13.256 7.027 14.5 9.115 14.5c1.252 0 1.406-.276 1.406-.752v-1.735c0-.553.118-.663.515-.663.293 0 .793.144 1.962 1.25 1.335 1.312 1.554 1.9 2.306 1.9h1.969c.562 0 .844-.276.682-.822-.178-.543-.816-1.331-1.661-2.267-.46-.532-1.148-1.106-1.357-1.393-.292-.368-.208-.533 0-.86 0 0 2.4-3.32 2.65-4.447Z" fill="#D22856"/></g></g></symbol><symbol id="youtube"><g fill="none"><path d="M1.834 12.809a1.257 1.257 0 0 1-1.285.03 1.097 1.097 0 0 1-.443-.457.97.97 0 0 1-.092-.603V1.221A.97.97 0 0 1 .106.618C.2.429.355.27.549.16a1.256 1.256 0 0 1 1.285.031l12.4 5.502c1.022.445 1.022 1.169 0 1.614l-12.4 5.502Z" fill="#D22856"/></g></symbol></svg>